<?xml version="1.0" encoding="utf-8"?>
<svg version="1.1" id="Layer_1" xmlns="http://www.w3.org/2000/svg" xmlns:xlink="http://www.w3.org/1999/xlink" x="0px" y="0px" viewBox="0 0 300 300" style="enable-background:new 0 0 300 300;" xml:space="preserve">
<style type="text/css">
	.st0{fill:#0C0C0D;}
</style>
<g>
	<path class="st0" d="M127,220.7c1,1.1,2.2,1.9,3.6,2.5c1.8,0.8,3.8,1.3,5.8,1.2c3.8,0,7.3-1.5,9.9-4.3c2.6-2.3,4.1-5.6,4.3-9.1
		c-0.4-3.9-1.3-7.7-2.6-11.3L127,220.7z"/>
	<path class="st0" d="M258.6,92.8c-0.7-0.6-1.3-1.2-2-1.7L237.8,110c3.1,2.4,5.7,5.4,7.6,9c4.2,7,6.3,17.5,6.3,31.5
		c0,19.9-4.8,33.9-14.4,42c-2.2,1.9-4.8,3.3-7.5,4.3s-5.6,1.6-8.5,1.9c-2.7,0.3-6.5,0.4-11.2,0.4h-21.8v-39.5l-28.7,28.7v13.4
		c-0.1,3.8,0.3,7.5,1.2,11.2c0.8,2.8,2.6,5.2,5.2,6.7c3.7,1.8,7.7,2.6,11.8,2.4h37.5c5.9,0,11.8-0.4,17.6-1.3
		c5-0.8,9.9-2.2,14.6-4.3c4.6-2.1,8.8-4.9,12.5-8.2c4.8-4.4,8.8-9.5,11.9-15.2c3.2-6,5.5-12.4,6.9-19c1.5-7.7,2.3-15.5,2.2-23.3
		C280.8,124.7,273.4,105.5,258.6,92.8z"/>
	<path class="st0" d="M275.9,24.1c-7.4-7.4-19.4-7.4-26.9,0L193.1,80H177c-1.8-0.3-3.7-0.3-5.5,0c-8.2,1.5-13.6,9.4-12,17.6v16
		l-33.2,33.2l-17.2-42.4c-1.7-4.5-3.1-8.1-4.3-11c-1.1-2.7-2.6-5.3-4.3-7.7c-1.7-2.4-3.9-4.4-6.5-5.9c-3.1-1.6-6.5-2.4-10-2.3
		c-3.4-0.1-6.9,0.7-9.9,2.3c-2.6,1.5-4.8,3.5-6.5,6c-1.9,2.9-3.4,6-4.6,9.2l-3.7,9.5l-36.5,92.1c-1.5,3.6-2.5,6.4-3.2,8.5
		c-0.6,1.9-1,4-1,6c0.1,3.5,1.6,6.7,4.3,9c2.5,2.5,6,4,9.6,4c3.5,0.3,6.9-1.1,9.2-3.7c2.8-4.5,5.1-9.3,6.8-14.4l6.6-17.8H85
		l-60.9,60.9c-7.4,7.4-7.4,19.4,0,26.9c3.7,3.7,8.6,5.6,13.4,5.6s9.7-1.9,13.4-5.6l225-225C283.4,43.5,283.4,31.5,275.9,24.1z
		 M84.1,107.8l21.3,58.5H62.9L84.1,107.8z"/>
</g>
</svg>
